<svg xmlns="http://www.w3.org/2000/svg" xmlns:xlink="http://www.w3.org/1999/xlink" width="100" zoomAndPan="magnify" viewBox="0 0 75 74.999997" height="100" preserveAspectRatio="xMidYMid meet" version="1.0"><defs><clipPath id="9e6a5e2233"><path d="M 28 26 L 71.933594 26 L 71.933594 73.828125 L 28 73.828125 Z M 28 26 " clip-rule="nonzero"/></clipPath><clipPath id="b0f1da9b73"><path d="M 2.933594 1.078125 L 44 1.078125 L 44 46 L 2.933594 46 Z M 2.933594 1.078125 " clip-rule="nonzero"/></clipPath></defs><path fill="#e8d5b7" d="M 58.503906 22.457031 C 58.46875 31.21875 58.425781 39.980469 58.382812 48.738281 C 58.457031 49.347656 58.308594 49.894531 57.929688 50.378906 C 57.636719 50.621094 57.304688 50.761719 56.925781 50.796875 C 55.648438 51.007812 54.34375 50.800781 53.050781 50.753906 C 48.34375 50.570312 43.847656 52.53125 39.203125 53.332031 C 33.882812 54.246094 28.433594 53.640625 23.078125 53.027344 C 22.0625 52.988281 21.105469 52.730469 20.210938 52.25 C 18.449219 51.113281 18.183594 48.679688 18.175781 46.589844 C 18.15625 41.59375 18.550781 36.601562 18.949219 31.621094 C 19.304688 27.144531 19.664062 22.667969 20.019531 18.191406 C 20.011719 17.925781 20.089844 17.6875 20.25 17.476562 C 20.496094 17.289062 20.769531 17.210938 21.078125 17.253906 C 26.558594 17.253906 32.148438 17.246094 37.667969 17.226562 C 43.167969 17.207031 48.695312 16.992188 54.1875 17.375 C 55.519531 17.46875 57.289062 17.789062 58.105469 18.988281 C 58.757812 19.9375 58.511719 21.382812 58.503906 22.457031 Z M 58.503906 22.457031 " fill-opacity="1" fill-rule="nonzero"/><g clip-path="url(#9e6a5e2233)"><path fill="#f5b349" d="M 58.734375 27.140625 C 48.53125 26.882812 38.316406 26.933594 28.117188 27.378906 L 28.042969 62.617188 C 28.007812 62.90625 28.070312 63.175781 28.226562 63.421875 C 28.433594 63.628906 28.683594 63.738281 28.972656 63.757812 C 30.679688 63.988281 32.394531 64.039062 34.109375 63.914062 C 40.242188 63.71875 46.359375 63.878906 52.472656 64.402344 C 53.617188 64.445312 54.730469 64.65625 55.8125 65.03125 C 57.34375 65.640625 58.550781 66.839844 59.710938 68.007812 L 65.367188 73.699219 C 65.480469 73.808594 65.609375 73.835938 65.753906 73.777344 C 65.902344 73.71875 65.976562 73.609375 65.976562 73.453125 L 66.101562 65.859375 C 66.074219 65.503906 66.144531 65.171875 66.320312 64.859375 C 66.835938 64.117188 67.992188 64.554688 68.882812 64.390625 C 70.386719 64.117188 70.84375 62.214844 70.964844 60.691406 C 71.65625 52.238281 72.046875 43.746094 71.546875 35.277344 C 71.4375 33.398438 71.257812 31.445312 70.265625 29.84375 C 68.214844 26.535156 62.097656 27.308594 58.734375 27.140625 " fill-opacity="1" fill-rule="nonzero"/></g><g clip-path="url(#b0f1da9b73)"><path fill="#fc3a51" d="M 43.765625 35.308594 C 43.660156 36.417969 42.9375 36.921875 41.792969 36.925781 C 35.039062 36.949219 28.285156 36.96875 21.527344 36.984375 C 20.019531 36.902344 18.542969 37.074219 17.097656 37.507812 C 16.164062 37.867188 15.3125 38.367188 14.542969 39.003906 C 13.246094 40.019531 12.128906 41.207031 11.195312 42.5625 C 10.355469 43.773438 9.566406 45.191406 8.304688 45.863281 C 8.242188 45.894531 8.175781 45.910156 8.105469 45.90625 C 8.035156 45.902344 7.972656 45.878906 7.914062 45.84375 C 7.855469 45.804688 7.808594 45.753906 7.777344 45.695312 C 7.742188 45.632812 7.726562 45.566406 7.730469 45.496094 C 7.777344 42.789062 7.761719 40.078125 7.679688 37.367188 C 7.703125 37.121094 7.640625 36.898438 7.5 36.699219 C 7.253906 36.503906 6.976562 36.4375 6.667969 36.496094 C 5.46875 36.574219 3.972656 36.570312 3.429688 35.496094 C 3.253906 35.070312 3.179688 34.628906 3.210938 34.167969 C 3.117188 24.550781 3.023438 14.929688 2.933594 5.3125 C 2.917969 3.953125 3.070312 2.304688 4.292969 1.703125 C 4.820312 1.488281 5.367188 1.402344 5.9375 1.445312 C 11.582031 1.445312 17.226562 1.449219 22.875 1.429688 C 25.699219 1.417969 28.523438 1.398438 31.34375 1.371094 C 34.007812 1.347656 36.707031 1.160156 39.371094 1.3125 C 39.699219 1.332031 40.03125 1.359375 40.359375 1.390625 C 42.6875 1.628906 43.65625 4.1875 43.710938 6.105469 C 43.847656 11.050781 43.734375 16 43.867188 20.945312 C 43.933594 23.394531 43.917969 25.839844 43.886719 28.289062 C 43.855469 30.609375 43.984375 33 43.765625 35.308594 Z M 43.765625 35.308594 " fill-opacity="1" fill-rule="nonzero"/></g><path fill="#0e2430" d="M 39.019531 47.285156 C 39.183594 47.253906 39.347656 47.222656 39.515625 47.195312 C 39.605469 47.179688 39.695312 47.164062 39.78125 47.152344 C 39.8125 47.148438 40.035156 47.117188 39.875 47.136719 C 40.195312 47.097656 40.519531 47.066406 40.84375 47.042969 C 41.503906 47 42.164062 46.996094 42.824219 47.035156 C 43.042969 47.035156 43.230469 46.957031 43.386719 46.800781 C 43.542969 46.644531 43.621094 46.457031 43.621094 46.238281 C 43.617188 46.019531 43.535156 45.832031 43.382812 45.675781 C 43.226562 45.523438 43.042969 45.441406 42.824219 45.4375 C 41.398438 45.363281 39.988281 45.464844 38.589844 45.742188 C 38.378906 45.804688 38.21875 45.929688 38.109375 46.121094 C 38 46.3125 37.976562 46.515625 38.03125 46.726562 C 38.097656 46.9375 38.222656 47.09375 38.414062 47.203125 C 38.601562 47.308594 38.804688 47.335938 39.015625 47.285156 Z M 39.019531 47.285156 " fill-opacity="1" fill-rule="nonzero"/><path fill="#0e2430" d="M 47.921875 47.246094 C 49.257812 47.121094 50.59375 47.09375 51.933594 47.171875 C 52.15625 47.167969 52.34375 47.089844 52.5 46.933594 C 52.65625 46.777344 52.734375 46.589844 52.734375 46.371094 C 52.730469 46.152344 52.648438 45.964844 52.496094 45.8125 C 52.339844 45.65625 52.152344 45.578125 51.933594 45.574219 C 50.59375 45.496094 49.257812 45.523438 47.921875 45.648438 C 47.703125 45.65625 47.515625 45.734375 47.359375 45.890625 C 47.207031 46.042969 47.125 46.230469 47.121094 46.449219 C 47.125 46.667969 47.203125 46.855469 47.359375 47.011719 C 47.515625 47.167969 47.703125 47.246094 47.921875 47.246094 Z M 47.921875 47.246094 " fill-opacity="1" fill-rule="nonzero"/><path fill="#0e2430" d="M 56.898438 47.289062 L 60.636719 47.289062 C 60.859375 47.289062 61.046875 47.210938 61.203125 47.054688 C 61.359375 46.898438 61.4375 46.710938 61.4375 46.488281 C 61.4375 46.269531 61.359375 46.082031 61.203125 45.925781 C 61.046875 45.769531 60.859375 45.691406 60.636719 45.691406 L 56.898438 45.691406 C 56.679688 45.691406 56.492188 45.769531 56.335938 45.925781 C 56.179688 46.082031 56.101562 46.269531 56.101562 46.488281 C 56.101562 46.710938 56.179688 46.898438 56.335938 47.054688 C 56.492188 47.210938 56.679688 47.289062 56.898438 47.289062 Z M 56.898438 47.289062 " fill-opacity="1" fill-rule="nonzero"/><path fill="#0e2430" d="M 25.429688 28.675781 C 25.511719 29.332031 25.351562 29.921875 24.949219 30.445312 C 24.757812 30.671875 24.523438 30.835938 24.242188 30.929688 C 23.960938 31.027344 23.675781 31.042969 23.386719 30.976562 C 23.085938 30.960938 22.820312 30.859375 22.585938 30.675781 C 22.261719 30.359375 22.109375 29.976562 22.128906 29.523438 C 22.078125 28.863281 22.25 28.269531 22.648438 27.742188 C 23.503906 26.816406 25.25 27.492188 25.429688 28.675781 Z M 25.429688 28.675781 " fill-opacity="1" fill-rule="nonzero"/><path fill="#0e2430" d="M 19.84375 15.78125 C 20.082031 14.8125 20.234375 13.148438 21.386719 12.824219 C 22.003906 12.6875 22.617188 12.710938 23.222656 12.894531 C 23.828125 13.074219 24.351562 13.394531 24.792969 13.851562 C 25.652344 14.894531 25.515625 16.59375 24.789062 17.65625 C 24.316406 18.34375 23.59375 18.753906 23.289062 19.570312 C 22.964844 20.449219 23.238281 21.386719 23.136719 22.292969 C 23.140625 22.511719 23.21875 22.699219 23.375 22.855469 C 23.527344 23.011719 23.714844 23.089844 23.9375 23.089844 C 24.15625 23.085938 24.34375 23.007812 24.496094 22.851562 C 24.652344 22.695312 24.730469 22.511719 24.734375 22.292969 C 24.816406 21.574219 24.5 20.621094 24.859375 19.964844 C 25.046875 19.695312 25.269531 19.453125 25.523438 19.246094 C 25.800781 18.972656 26.039062 18.671875 26.246094 18.339844 C 26.621094 17.714844 26.855469 17.039062 26.941406 16.3125 C 27.023438 15.582031 26.957031 14.871094 26.730469 14.175781 C 26.503906 13.523438 26.144531 12.960938 25.648438 12.484375 C 25.152344 12.007812 24.574219 11.667969 23.914062 11.46875 C 22.75 11.054688 21.25 10.9375 20.167969 11.632812 C 18.914062 12.445312 18.632812 14.011719 18.304688 15.355469 C 18.0625 16.351562 19.601562 16.78125 19.847656 15.78125 Z M 19.84375 15.78125 " fill-opacity="1" fill-rule="nonzero"/></svg>