<svg xmlns="http://www.w3.org/2000/svg" xmlns:xlink="http://www.w3.org/1999/xlink" width="500" zoomAndPan="magnify" viewBox="0 0 375 374.999991" height="500" preserveAspectRatio="xMidYMid meet" version="1.0"><defs><g/><clipPath id="d8a8a7c5a7"><path d="M 87.71875 7.300781 L 206 7.300781 L 206 137 L 87.71875 137 Z M 87.71875 7.300781 " clip-rule="nonzero"/></clipPath></defs><path fill="#01c3dc" d="M 248.089844 68.945312 C 247.988281 94.203125 247.867188 119.460938 247.734375 144.71875 C 247.84375 145.5625 247.78125 146.394531 247.554688 147.214844 C 247.328125 148.035156 246.953125 148.777344 246.429688 149.449219 C 245.589844 150.144531 244.625 150.542969 243.539062 150.644531 C 239.851562 151.261719 236.085938 150.660156 232.351562 150.523438 C 218.761719 150 205.792969 155.652344 192.390625 157.953125 C 177.035156 160.59375 161.3125 158.84375 145.847656 157.078125 C 142.917969 156.96875 140.164062 156.222656 137.578125 154.835938 C 132.492188 151.566406 131.722656 144.550781 131.707031 138.515625 C 131.648438 124.113281 132.785156 109.726562 133.9375 95.371094 C 134.96875 82.457031 135.996094 69.546875 137.027344 56.644531 C 137.007812 55.882812 137.226562 55.195312 137.6875 54.585938 C 138.398438 54.039062 139.195312 53.824219 140.085938 53.941406 C 155.898438 53.941406 172.027344 53.917969 187.960938 53.867188 C 203.828125 53.8125 219.785156 53.195312 235.628906 54.292969 C 239.472656 54.558594 244.578125 55.488281 246.945312 58.945312 C 248.820312 61.683594 248.113281 65.851562 248.089844 68.945312 Z M 248.089844 68.945312 " fill-opacity="1" fill-rule="nonzero"/><path fill="#ffb100" d="M 248.757812 82.453125 C 219.3125 81.707031 189.828125 81.847656 160.398438 83.136719 L 160.175781 184.734375 C 160.082031 185.566406 160.257812 186.339844 160.707031 187.050781 C 161.308594 187.640625 162.027344 187.964844 162.871094 188.023438 C 167.796875 188.679688 172.738281 188.828125 177.695312 188.472656 C 195.382812 187.902344 213.046875 188.367188 230.679688 189.871094 C 233.984375 190.003906 237.195312 190.609375 240.320312 191.6875 C 244.738281 193.445312 248.21875 196.902344 251.570312 200.269531 L 267.898438 216.675781 C 268.042969 216.824219 268.21875 216.917969 268.421875 216.960938 C 268.625 217 268.820312 216.984375 269.011719 216.90625 C 269.207031 216.828125 269.359375 216.707031 269.476562 216.535156 C 269.59375 216.363281 269.652344 216.175781 269.65625 215.96875 L 270.015625 194.082031 C 269.933594 193.054688 270.140625 192.089844 270.640625 191.191406 C 272.140625 189.054688 275.476562 190.316406 278.042969 189.847656 C 282.378906 189.050781 283.695312 183.570312 284.054688 179.179688 C 286.042969 154.808594 287.167969 130.316406 285.730469 105.910156 C 285.414062 100.496094 284.894531 94.855469 282.03125 90.238281 C 276.109375 80.703125 258.464844 82.933594 248.757812 82.453125 " fill-opacity="1" fill-rule="nonzero"/><g clip-path="url(#d8a8a7c5a7)"><path fill="#ff47f9" d="M 205.558594 105.996094 C 205.25 109.195312 203.167969 110.652344 199.859375 110.664062 C 180.371094 110.722656 160.875 110.78125 141.375 110.832031 C 137.027344 110.585938 132.761719 111.085938 128.589844 112.335938 C 125.902344 113.378906 123.449219 114.816406 121.226562 116.652344 C 117.484375 119.578125 114.261719 123 111.558594 126.90625 C 109.132812 130.402344 106.859375 134.488281 103.222656 136.425781 C 103.132812 136.472656 103.039062 136.503906 102.941406 136.523438 C 102.84375 136.542969 102.746094 136.550781 102.648438 136.546875 C 102.546875 136.542969 102.449219 136.523438 102.355469 136.492188 C 102.261719 136.464844 102.171875 136.421875 102.089844 136.367188 C 102.003906 136.316406 101.929688 136.25 101.863281 136.179688 C 101.792969 136.105469 101.738281 136.027344 101.691406 135.9375 C 101.644531 135.851562 101.609375 135.757812 101.585938 135.660156 C 101.566406 135.566406 101.554688 135.46875 101.558594 135.367188 C 101.699219 127.558594 101.652344 119.746094 101.414062 111.9375 C 101.480469 111.226562 101.304688 110.582031 100.890625 110.003906 C 100.183594 109.441406 99.382812 109.246094 98.496094 109.417969 C 95.035156 109.648438 90.71875 109.632812 89.148438 106.53125 C 88.640625 105.308594 88.429688 104.03125 88.519531 102.707031 C 88.242188 74.976562 87.976562 47.246094 87.71875 19.515625 C 87.671875 15.601562 88.117188 10.84375 91.636719 9.105469 C 93.160156 8.488281 94.746094 8.246094 96.386719 8.371094 C 112.679688 8.371094 128.96875 8.378906 145.261719 8.316406 C 153.417969 8.289062 161.566406 8.234375 169.710938 8.15625 C 177.394531 8.082031 185.1875 7.542969 192.867188 7.988281 C 193.820312 8.042969 194.773438 8.117188 195.726562 8.214844 C 202.441406 8.902344 205.238281 16.265625 205.394531 21.800781 C 205.789062 36.058594 205.46875 50.328125 205.855469 64.585938 C 206.042969 71.648438 206 78.699219 205.90625 85.753906 C 205.8125 92.445312 206.179688 99.339844 205.558594 105.996094 Z M 205.558594 105.996094 " fill-opacity="1" fill-rule="nonzero"/></g><path fill="#01142e" d="M 191.855469 140.523438 C 192.332031 140.429688 192.808594 140.339844 193.289062 140.261719 C 193.546875 140.21875 193.804688 140.179688 194.054688 140.140625 C 194.148438 140.125 194.789062 140.042969 194.332031 140.101562 C 195.253906 139.984375 196.183594 139.894531 197.121094 139.828125 C 199.023438 139.703125 200.929688 139.695312 202.835938 139.804688 C 203.140625 139.804688 203.433594 139.742188 203.714844 139.625 C 203.996094 139.507812 204.242188 139.34375 204.460938 139.125 C 204.675781 138.910156 204.84375 138.664062 204.960938 138.382812 C 205.078125 138.101562 205.136719 137.808594 205.140625 137.503906 C 205.132812 137.199219 205.070312 136.90625 204.949219 136.628906 C 204.832031 136.351562 204.664062 136.101562 204.449219 135.886719 C 204.234375 135.671875 203.988281 135.507812 203.707031 135.386719 C 203.429688 135.269531 203.136719 135.207031 202.835938 135.199219 C 198.726562 134.984375 194.65625 135.277344 190.621094 136.082031 C 190.328125 136.164062 190.058594 136.300781 189.820312 136.488281 C 189.578125 136.675781 189.382812 136.902344 189.234375 137.167969 C 189.082031 137.433594 188.988281 137.71875 188.949219 138.019531 C 188.910156 138.320312 188.933594 138.621094 189.011719 138.914062 C 189.101562 139.207031 189.238281 139.46875 189.425781 139.707031 C 189.617188 139.941406 189.84375 140.136719 190.109375 140.285156 C 190.371094 140.4375 190.652344 140.53125 190.953125 140.574219 C 191.253906 140.613281 191.554688 140.597656 191.847656 140.523438 Z M 191.855469 140.523438 " fill-opacity="1" fill-rule="nonzero"/><path fill="#01142e" d="M 217.546875 140.417969 C 221.402344 140.050781 225.265625 139.976562 229.132812 140.195312 C 229.4375 140.191406 229.730469 140.132812 230.011719 140.015625 C 230.292969 139.898438 230.542969 139.730469 230.757812 139.515625 C 230.972656 139.300781 231.140625 139.050781 231.257812 138.769531 C 231.375 138.488281 231.4375 138.195312 231.4375 137.890625 C 231.429688 137.585938 231.367188 137.296875 231.25 137.015625 C 231.128906 136.738281 230.960938 136.492188 230.746094 136.277344 C 230.53125 136.0625 230.285156 135.894531 230.007812 135.777344 C 229.726562 135.65625 229.433594 135.59375 229.132812 135.585938 C 225.265625 135.371094 221.402344 135.445312 217.546875 135.8125 C 217.242188 135.816406 216.953125 135.878906 216.671875 136 C 216.394531 136.117188 216.144531 136.285156 215.929688 136.5 C 215.714844 136.714844 215.550781 136.960938 215.429688 137.242188 C 215.3125 137.519531 215.25 137.8125 215.242188 138.113281 C 215.246094 138.417969 215.304688 138.710938 215.425781 138.992188 C 215.542969 139.273438 215.710938 139.519531 215.925781 139.734375 C 216.140625 139.953125 216.386719 140.117188 216.667969 140.234375 C 216.949219 140.355469 217.242188 140.414062 217.546875 140.417969 Z M 217.546875 140.417969 " fill-opacity="1" fill-rule="nonzero"/><path fill="#01142e" d="M 243.457031 140.535156 L 254.25 140.535156 C 254.554688 140.535156 254.847656 140.476562 255.132812 140.359375 C 255.414062 140.242188 255.664062 140.078125 255.878906 139.863281 C 256.09375 139.644531 256.261719 139.398438 256.378906 139.113281 C 256.496094 138.832031 256.554688 138.539062 256.554688 138.234375 C 256.554688 137.925781 256.496094 137.632812 256.378906 137.351562 C 256.261719 137.070312 256.09375 136.820312 255.878906 136.605469 C 255.664062 136.386719 255.414062 136.222656 255.132812 136.105469 C 254.847656 135.988281 254.554688 135.929688 254.25 135.929688 L 243.457031 135.929688 C 243.152344 135.929688 242.859375 135.988281 242.574219 136.105469 C 242.292969 136.222656 242.042969 136.386719 241.828125 136.605469 C 241.613281 136.820312 241.445312 137.070312 241.328125 137.351562 C 241.210938 137.632812 241.152344 137.925781 241.152344 138.234375 C 241.152344 138.539062 241.210938 138.832031 241.328125 139.113281 C 241.445312 139.398438 241.613281 139.644531 241.828125 139.863281 C 242.042969 140.078125 242.292969 140.242188 242.574219 140.359375 C 242.859375 140.476562 243.152344 140.535156 243.457031 140.535156 Z M 243.457031 140.535156 " fill-opacity="1" fill-rule="nonzero"/><path fill="#01142e" d="M 152.640625 86.878906 C 152.75 87.785156 152.6875 88.679688 152.449219 89.5625 C 152.207031 90.445312 151.8125 91.25 151.257812 91.976562 C 150.707031 92.632812 150.023438 93.097656 149.214844 93.371094 C 148.402344 93.648438 147.578125 93.695312 146.742188 93.511719 C 145.882812 93.460938 145.113281 93.171875 144.4375 92.636719 C 143.988281 92.203125 143.648438 91.695312 143.417969 91.117188 C 143.183594 90.539062 143.082031 89.9375 143.113281 89.3125 C 143.042969 88.394531 143.136719 87.492188 143.394531 86.609375 C 143.652344 85.726562 144.058594 84.914062 144.609375 84.175781 C 147.082031 81.515625 152.117188 83.457031 152.640625 86.878906 Z M 152.640625 86.878906 " fill-opacity="1" fill-rule="nonzero"/><path fill="#01142e" d="M 136.523438 49.695312 C 137.207031 46.902344 137.644531 42.105469 140.972656 41.171875 C 141.847656 40.976562 142.738281 40.898438 143.636719 40.929688 C 144.535156 40.964844 145.414062 41.109375 146.273438 41.371094 C 147.132812 41.628906 147.945312 41.996094 148.714844 42.464844 C 149.480469 42.933594 150.175781 43.488281 150.796875 44.136719 C 153.28125 47.140625 152.886719 52.039062 150.785156 55.109375 C 149.429688 57.089844 147.335938 58.269531 146.464844 60.621094 C 145.527344 63.152344 146.320312 65.863281 146.027344 68.46875 C 146.027344 68.773438 146.085938 69.066406 146.207031 69.347656 C 146.324219 69.628906 146.488281 69.875 146.707031 70.09375 C 146.921875 70.308594 147.167969 70.472656 147.453125 70.589844 C 147.734375 70.710938 148.027344 70.769531 148.332031 70.769531 C 148.636719 70.765625 148.925781 70.703125 149.207031 70.582031 C 149.484375 70.460938 149.730469 70.296875 149.945312 70.082031 C 150.160156 69.867188 150.328125 69.621094 150.449219 69.339844 C 150.566406 69.0625 150.628906 68.769531 150.636719 68.46875 C 150.871094 66.398438 149.960938 63.648438 150.988281 61.761719 C 151.53125 60.980469 152.171875 60.289062 152.910156 59.6875 C 153.707031 58.898438 154.398438 58.03125 154.992188 57.078125 C 155.53125 56.183594 155.96875 55.246094 156.308594 54.257812 C 156.644531 53.273438 156.875 52.261719 156.996094 51.222656 C 157.117188 50.1875 157.128906 49.152344 157.027344 48.113281 C 156.925781 47.074219 156.714844 46.058594 156.398438 45.066406 C 156.074219 44.140625 155.648438 43.269531 155.121094 42.445312 C 154.59375 41.621094 153.972656 40.871094 153.265625 40.191406 C 152.5625 39.515625 151.785156 38.929688 150.9375 38.433594 C 150.09375 37.941406 149.203125 37.550781 148.261719 37.269531 C 144.910156 36.074219 140.578125 35.734375 137.460938 37.742188 C 133.839844 40.078125 133.027344 44.597656 132.082031 48.46875 C 131.375 51.347656 135.820312 52.574219 136.527344 49.695312 Z M 136.523438 49.695312 " fill-opacity="1" fill-rule="nonzero"/><g fill="#01142e" fill-opacity="1"><g transform="translate(30.644202, 309.065332)"><g><path d="M 46.519531 -61.789062 L 46.621094 -64.519531 L 46.621094 -67.148438 C 46.722656 -68.667969 47.023438 -69.679688 47.835938 -70.890625 C 49.554688 -73.621094 49.554688 -73.722656 49.554688 -75.242188 C 49.554688 -77.871094 47.933594 -79.488281 45.507812 -79.488281 C 44.496094 -79.488281 43.082031 -79.386719 41.464844 -79.285156 C 38.226562 -78.882812 34.890625 -78.78125 30.441406 -78.78125 C 26.292969 -78.78125 24.472656 -78.882812 20.429688 -79.285156 C 18.707031 -79.386719 16.988281 -79.488281 15.878906 -79.488281 C 13.148438 -79.488281 11.527344 -77.972656 11.527344 -75.339844 C 11.527344 -73.824219 11.628906 -73.621094 13.246094 -70.890625 C 14.257812 -69.273438 14.460938 -68.464844 14.460938 -65.429688 L 14.5625 -61.789062 L 14.5625 -41.664062 C 14.460938 -40.148438 14.460938 -38.832031 14.460938 -38.023438 C 14.460938 -36.8125 14.5625 -35.800781 14.664062 -35.09375 C 15.269531 -30.742188 15.269531 -30.742188 15.269531 -29.429688 C 15.269531 -26.191406 13.753906 -24.371094 11.125 -24.371094 C 9.40625 -24.371094 9 -24.574219 6.675781 -26.800781 C 5.5625 -27.710938 4.753906 -28.113281 3.539062 -28.113281 C 1.214844 -28.113281 -0.40625 -26.496094 -0.40625 -24.171875 C -0.40625 -23.5625 -0.40625 -22.957031 -0.304688 -22.351562 C 0 -18.910156 0.101562 -18 0.101562 -15.472656 C 0.101562 -13.148438 0 -12.335938 -0.40625 -8.898438 C -0.503906 -8.089844 -0.503906 -7.28125 -0.503906 -6.675781 C -0.503906 -1.617188 6.875 1.617188 18.609375 1.617188 C 37.621094 1.617188 47.328125 -7.28125 47.328125 -24.574219 C 47.328125 -26.089844 47.226562 -30.238281 47.023438 -34.6875 C 46.824219 -38.632812 46.519531 -50.765625 46.519531 -55.214844 Z M 46.519531 -61.789062 "/></g></g></g><g fill="#01142e" fill-opacity="1"><g transform="translate(81.714003, 309.065332)"><g><path d="M 44.394531 -81.003906 C 33.070312 -81.003906 23.261719 -77.871094 15.976562 -72.003906 C 7.484375 -65.128906 2.226562 -52.484375 2.226562 -38.734375 C 2.226562 -13.753906 18.507812 2.226562 43.992188 2.226562 C 70.183594 2.226562 86.164062 -13.652344 86.164062 -39.742188 C 86.164062 -52.890625 81.710938 -64.117188 73.824219 -71.09375 C 66.644531 -77.160156 55.519531 -81.003906 44.394531 -81.003906 Z M 43.992188 -55.824219 C 49.65625 -55.824219 52.585938 -50.363281 52.585938 -39.644531 C 52.585938 -29.328125 49.554688 -23.765625 44.09375 -23.765625 C 38.429688 -23.765625 35.800781 -28.921875 35.800781 -39.84375 C 35.800781 -50.566406 38.429688 -55.824219 43.992188 -55.824219 Z M 43.992188 -55.824219 "/></g></g></g><g fill="#01142e" fill-opacity="1"><g transform="translate(170.100155, 309.065332)"><g><path d="M 54.710938 -44.902344 C 51.273438 -44.902344 50.566406 -44.800781 49.753906 -44.394531 C 48.746094 -43.789062 48.136719 -42.472656 48.136719 -41.058594 C 48.136719 -38.933594 48.746094 -38.328125 51.878906 -37.011719 C 54.40625 -36.003906 55.417969 -34.382812 55.417969 -31.351562 C 55.417969 -26.496094 52.183594 -23.765625 46.519531 -23.765625 C 38.328125 -23.765625 33.675781 -29.226562 33.675781 -38.933594 C 33.675781 -49.957031 39.644531 -55.824219 50.96875 -55.824219 C 55.519531 -55.824219 65.230469 -54.304688 69.878906 -52.789062 C 77.871094 -50.363281 77.871094 -50.363281 78.980469 -50.363281 C 80.800781 -50.363281 82.621094 -52.183594 82.621094 -54.003906 C 82.621094 -54.710938 82.320312 -55.722656 81.8125 -56.9375 C 79.589844 -62.5 77.871094 -69.273438 77.464844 -74.027344 C 77.261719 -79.082031 76.152344 -80.5 72.105469 -80.5 C 70.890625 -80.5 69.980469 -80.195312 69.171875 -79.386719 C 67.757812 -78.171875 67.65625 -78.070312 67.050781 -78.070312 C 66.441406 -78.070312 65.734375 -78.171875 64.925781 -78.375 C 59.464844 -79.890625 51.574219 -81.003906 46.113281 -81.003906 C 18 -81.003906 2.226562 -66.339844 2.226562 -40.25 C 2.226562 -12.742188 18.203125 2.226562 47.53125 2.226562 C 58.957031 2.226562 68.566406 0.203125 77.261719 -3.945312 C 81.511719 -5.867188 83.128906 -7.585938 83.128906 -10.113281 C 83.128906 -11.023438 83.027344 -12.238281 82.824219 -13.652344 C 82.21875 -17.496094 82.015625 -22.550781 82.015625 -30.542969 C 82.015625 -33.675781 82.117188 -36.003906 82.21875 -37.722656 C 82.320312 -39.035156 82.421875 -40.25 82.421875 -40.957031 C 82.421875 -43.992188 81.105469 -44.902344 76.757812 -44.902344 Z M 54.710938 -44.902344 "/></g></g></g><g fill="#01142e" fill-opacity="1"><g transform="translate(255.958092, 309.065332)"><g><path d="M 44.394531 -81.003906 C 33.070312 -81.003906 23.261719 -77.871094 15.976562 -72.003906 C 7.484375 -65.128906 2.226562 -52.484375 2.226562 -38.734375 C 2.226562 -13.753906 18.507812 2.226562 43.992188 2.226562 C 70.183594 2.226562 86.164062 -13.652344 86.164062 -39.742188 C 86.164062 -52.890625 81.710938 -64.117188 73.824219 -71.09375 C 66.644531 -77.160156 55.519531 -81.003906 44.394531 -81.003906 Z M 43.992188 -55.824219 C 49.65625 -55.824219 52.585938 -50.363281 52.585938 -39.644531 C 52.585938 -29.328125 49.554688 -23.765625 44.09375 -23.765625 C 38.429688 -23.765625 35.800781 -28.921875 35.800781 -39.84375 C 35.800781 -50.566406 38.429688 -55.824219 43.992188 -55.824219 Z M 43.992188 -55.824219 "/></g></g></g><path stroke-linecap="butt" transform="matrix(0.397729, -0.0241608, 0.0241608, 0.397729, 30.26197, 275.30254)" fill="none" stroke-linejoin="miter" d="M 216.76125 57.49693 C 217.95981 57.491168 218.899152 57.872336 219.589656 58.631244 C 220.290539 59.380961 220.63618 60.158205 220.627767 60.943406 C 220.629139 61.729201 220.020761 63.175275 218.792846 65.281033 C 217.564931 67.386791 214.751437 71.989079 210.343765 79.067731 C 205.936093 86.146383 202.5048 91.703103 200.05048 95.728104 C 185.763843 118.952121 174.563363 138.582375 166.448447 154.628651 C 158.332936 170.684713 154.26798 180.367211 154.271366 183.706692 L 154.274522 184.463131 C 154.264967 187.045578 155.218119 188.331154 157.103433 188.337645 C 158.989341 188.334351 161.272422 187.451616 163.942889 185.688845 C 166.623142 183.926668 168.967448 182.036048 170.975214 180.026771 C 172.993359 178.008302 175.02545 175.921931 177.062891 173.747493 C 179.110118 171.573648 180.356003 170.303801 180.791357 169.92757 C 181.236496 169.551933 181.798144 169.36016 182.495277 169.363223 C 183.566034 169.359518 184.261293 170.040144 184.572457 171.384934 C 184.883026 172.739511 185.043479 174.625144 185.043435 177.051027 C 185.043392 179.476909 184.858433 181.066561 184.478773 181.819388 C 182.654049 185.342458 178.641444 189.636191 172.44096 194.700584 C 166.239882 199.774763 160.370084 202.305682 154.840757 202.30372 C 145.392834 202.299429 140.675362 198.310191 140.679746 190.315841 C 140.677181 185.346058 142.565782 178.831342 146.335763 170.771098 C 141.239326 177.38559 136.055552 183.012637 130.763682 187.67062 C 120.94301 196.227587 112.42291 200.51268 105.184404 200.514927 C 101.15817 200.506059 98.179464 199.097438 96.259853 196.2603 C 94.339649 193.432948 93.379179 189.357652 93.378443 184.03441 C 93.386898 178.721548 95.463477 172.345929 99.617371 164.917933 C 103.77067 157.499723 108.94036 150.811109 115.145416 144.863068 C 121.340686 138.914431 128.213383 133.93998 135.762911 129.949497 C 143.32282 125.949824 150.269823 123.955769 156.634466 123.949545 C 158.647583 123.953979 160.999162 125.177184 163.708179 127.630133 C 165.534002 124.735699 168.900684 118.949163 173.808822 110.260739 C 189.225612 84.276812 199.421228 68.415861 204.395075 62.687669 C 207.041169 59.224316 211.163426 57.490808 216.76125 57.49693 Z M 157.954026 136.502878 C 148.88389 138.525102 140.456613 142.737263 132.651434 149.157743 C 124.846256 155.578223 118.99722 162.294318 115.093948 169.315218 C 111.191271 176.326334 109.24542 180.873293 109.236825 182.954907 C 109.23861 185.02733 109.686219 186.066124 110.560082 186.070102 C 114.341683 186.064109 123.68315 177.635174 138.595456 160.764323 C 146.023717 152.464702 152.47697 144.37103 157.954026 136.502878 Z M 242.724049 128.393506 C 242.717834 132.537758 241.041946 136.197548 237.668814 139.341737 C 234.305467 142.48652 230.477684 144.061131 226.205629 144.056974 C 224.820554 144.061227 223.907595 143.730769 223.466754 143.065598 C 223.025318 142.410213 222.803045 141.542249 222.79934 140.471492 C 222.805421 139.401329 222.927142 138.367655 223.184668 137.361874 C 220.919695 138.10821 218.393125 139.280617 215.626314 140.850929 C 212.859503 142.421241 209.457426 144.748496 205.429868 147.833288 C 201.402311 150.91808 199.396877 153.212319 199.393403 154.724603 C 199.392443 155.225436 200.132833 155.486483 201.606571 155.477794 C 203.089499 155.479485 205.370156 154.959994 208.458328 153.919917 C 211.536119 152.88903 213.689568 152.361811 214.91689 152.367617 C 216.144806 152.363638 216.946011 152.431952 217.331478 152.553582 C 218.149236 152.996114 219.024151 153.952831 219.9752 155.434706 C 220.916463 156.915988 221.386295 158.073989 221.383506 158.928281 C 221.391097 159.773382 220.566894 160.892061 218.93106 162.27572 C 217.295226 163.659379 215.443568 164.715643 213.366298 165.443917 C 211.289623 166.162405 209.900616 166.716418 209.209656 167.096765 C 195.931942 174.520515 189.287554 179.616872 189.286276 182.386428 C 189.292407 187.297499 193.474567 189.751545 201.842542 189.74916 C 207.195139 189.750208 212.57229 188.053645 217.984374 184.650281 C 222.579753 181.757125 226.716412 178.81646 230.404136 175.828881 C 234.08267 172.830923 236.413625 170.99842 237.388998 170.301424 C 238.363776 169.614212 239.101879 169.266194 239.602712 169.267154 C 241.242799 169.26857 242.065405 171.086392 242.059555 174.739596 C 242.06349 178.393395 241.838979 180.79582 241.395213 181.957251 C 240.960637 183.129063 239.705241 184.555475 237.627835 186.256059 C 224.155699 197.203702 211.408447 202.685576 199.387268 202.68211 C 192.973699 202.685362 187.841544 201.803958 184.000589 200.038495 C 176.957055 196.831167 173.434714 191.922568 173.433565 185.312698 C 173.430632 176.630406 179.43829 170.051625 191.465729 165.586735 C 189.075878 164.508526 187.528201 163.14755 186.834268 161.475044 C 186.13974 159.812323 185.801779 157.130194 185.799033 153.456825 C 185.796881 149.773671 187.516985 145.871032 190.939774 141.74772 C 194.372349 137.625002 198.574898 134.246377 203.548017 131.602059 C 214.626785 125.616153 224.501829 122.631221 233.184122 122.628288 C 235.26633 122.627097 237.37634 123.138308 239.51534 124.14235 C 241.654341 125.146392 242.717189 126.56631 242.724049 128.393506 Z M 331.644753 97.711349 C 329.56945 99.215633 328.53404 100.900944 328.529332 102.756902 C 328.534409 104.613454 329.91194 105.541775 332.681497 105.543053 C 333.879463 105.547076 335.422931 105.198874 337.311308 104.508232 L 337.39997 104.503797 C 337.714288 104.503248 337.871356 105.15118 337.871769 106.437808 C 337.871587 107.734222 337.746345 108.502504 337.495449 108.75244 C 331.018964 113.348284 325.536462 115.647373 321.068107 115.641112 C 316.599158 115.644637 313.365714 114.387504 311.348205 111.868526 C 309.330697 109.349548 308.331863 106.067454 308.323538 102.00089 C 308.324403 97.944706 310.560521 93.63145 315.031296 89.070909 C 319.502071 84.510367 325.50406 80.288377 333.055646 76.425698 C 340.607827 72.553233 349.97495 69.360662 361.147825 66.837604 C 372.31032 64.323736 384.869872 63.063482 398.806315 63.065437 C 412.752543 63.067987 424.412171 65.789659 433.7852 71.230454 C 443.158228 76.671249 447.849592 82.868715 447.849506 89.822259 C 447.848826 96.785588 445.416319 103.846725 440.531226 111.024054 C 435.656513 118.192192 429.551048 124.440925 422.22521 129.761063 C 414.889588 135.080607 406.757926 139.438404 397.820442 142.83386 C 388.882957 146.229316 380.892814 147.934111 373.841418 147.928081 C 366.789427 147.931836 361.314465 145.094793 357.415344 139.436523 C 347.84937 154.47144 341.371198 164.75377 337.972827 170.253561 C 334.573862 175.763137 331.690087 180.39062 329.331287 184.136603 C 326.973082 187.872801 325.144287 190.816162 323.855283 192.957494 C 322.566279 195.098827 321.890638 196.197066 321.827765 196.261996 C 320.502089 197.713604 319.093191 198.433372 317.580907 198.429898 L 312.95201 199.287989 L 310.68539 199.091371 L 309.084444 199.092332 C 305.371933 199.092701 303.517621 197.929168 303.51172 195.601138 C 303.514507 192.645067 309.7111 181.500993 322.110094 162.18908 C 334.509683 142.867381 346.201212 125.339272 357.174895 109.604156 C 368.158364 93.869635 374.568726 85.026932 376.38641 83.074857 C 378.213879 81.123377 379.835446 79.974565 381.251112 79.628421 C 382.666777 79.282276 384.945606 79.116245 388.098572 79.11135 L 392.812748 79.112901 C 393.637684 79.113906 394.040573 79.757128 394.040986 81.043756 C 394.040804 82.340169 393.888264 83.234472 393.572986 83.735853 C 388.034566 91.482421 378.030585 106.775552 363.55126 129.614651 C 364.059364 130.627656 364.885398 131.257297 366.048933 131.504764 C 367.222253 131.752824 368.462012 131.877243 369.777996 131.878614 L 372.518197 131.878108 C 378.312321 131.886334 384.575452 130.479306 391.306401 127.676593 C 398.036755 124.883666 403.956485 121.530783 409.055211 117.627136 C 414.153937 113.723488 418.408475 109.650702 421.838992 105.400181 C 425.268915 101.159446 426.99254 97.522198 426.989702 94.497036 C 426.986271 91.481659 426.041028 88.772461 424.15338 86.379228 C 422.265733 83.985996 419.689183 82.100913 416.41454 80.713599 C 409.998088 78.015792 402.203786 76.658387 393.050016 76.662143 C 383.896841 76.656115 372.8509 79.029741 359.92198 83.783618 C 346.983274 88.536899 337.557532 93.179477 331.644753 97.711349 Z M 490.80292 127.258216 C 495.586188 127.254143 497.971513 128.891896 497.97906 132.16288 C 497.969916 133.930176 497.567349 135.221788 496.751787 136.036528 C 495.92644 136.850674 494.179814 139.573134 491.51191 144.203909 C 488.834814 148.824304 485.872575 154.743444 482.635571 161.952139 C 479.389377 169.150455 477.296519 175.309014 476.358187 180.408246 C 476.172771 181.035374 476.070346 181.913077 476.070484 183.042546 C 476.075928 186.50983 477.021901 188.236932 478.907215 188.243424 C 480.793123 188.24013 483.027872 187.344638 485.612055 185.547161 C 488.185858 183.758875 490.483021 181.835927 492.50295 179.788103 C 494.513093 177.739684 496.476687 175.649152 498.403518 173.517101 C 500.321158 171.37467 501.466219 170.147805 501.849079 169.827314 C 502.22156 169.516013 502.79121 169.35419 503.547055 169.360819 C 504.73583 169.354462 505.465749 170.272907 505.71843 172.095394 C 505.971112 173.91788 506.091829 175.810922 506.091556 177.755541 C 506.090689 179.709947 505.900426 181.063563 505.530551 181.816985 C 503.701666 185.408552 499.687873 189.721855 493.489766 194.747107 C 487.291066 199.782145 481.657303 202.307759 476.589668 202.30438 C 471.531818 202.301594 467.795209 200.75854 465.409197 197.677 C 463.0134 194.594865 461.816208 191.182865 461.818217 187.431213 C 461.819632 183.689347 462.4511 180.408075 463.704026 177.567231 C 458.488062 184.37089 452.491195 190.125329 445.722021 194.850714 C 438.963227 199.566907 433.438017 201.92233 429.155582 201.927364 C 424.873742 201.922612 421.386475 200.640239 418.6754 198.059486 C 415.217168 194.844062 413.483705 190.397702 413.485987 184.701431 C 413.488269 179.005159 414.759391 173.277931 417.30914 167.520339 C 419.858888 161.762748 423.213042 156.505806 427.361817 151.748918 C 431.519783 147.002411 436.084524 142.67347 441.055447 138.77188 C 451.501142 130.596631 461.129632 126.496725 469.939134 126.501519 C 473.337326 126.501699 476.101762 127.072307 478.24282 128.204153 C 480.383878 129.335998 481.741473 130.754177 482.306415 132.448312 C 483.819017 130.183062 485.084793 128.747459 486.132504 128.153071 C 487.17043 127.558088 488.720712 127.259407 490.80292 127.258216 Z M 478.243559 137.730952 C 467.479058 137.735076 456.341577 143.717416 444.831712 155.668186 C 440.74142 159.947378 436.972443 165.080907 433.544945 171.060177 C 430.117447 177.039447 428.40562 181.129195 428.399677 183.328827 C 428.40352 185.529053 429.033483 186.637853 430.290755 186.635658 C 432.04886 186.634422 436.964272 183.161601 445.018015 176.206222 C 453.071757 169.250843 458.420921 164.134735 461.065507 160.857896 C 463.958336 157.213103 469.690679 149.50778 478.243559 137.730952 Z M 575.754791 57.304736 C 578.779953 57.301898 581.43611 58.199856 583.733048 59.999204 C 586.03058 61.788766 587.18488 64.451735 587.176972 67.977136 C 587.179444 71.493346 585.232862 77.022401 581.32863 84.544134 C 577.424398 92.065867 572.73524 99.736347 567.259967 107.575143 C 561.784694 115.413939 555.592946 123.729746 548.663964 132.540945 C 537.718995 146.509953 527.203297 159.071114 517.13763 170.206047 C 517.071694 170.96811 516.809961 172.366492 516.332267 174.409788 C 515.864359 176.453679 515.631297 178.511836 515.622702 180.59345 C 515.624487 182.665873 516.5909 184.541538 518.502964 186.209471 C 520.424814 187.877998 522.80017 188.709791 525.628438 188.714635 C 528.467086 188.710289 531.503953 187.70638 534.739635 185.693124 C 537.985102 183.680462 540.80212 181.445344 543.190688 178.987772 C 549.487149 172.505106 553.386629 169.265213 554.898913 169.268687 C 556.411791 169.262376 557.166129 171.557299 557.161926 176.153458 L 557.16522 178.039366 C 557.163392 180.494604 556.72013 182.294457 555.83662 183.419354 C 550.55161 189.904534 544.610619 194.739156 538.004455 197.912841 C 531.387912 201.095716 525.133652 202.680069 519.21113 202.683686 C 513.298988 202.678112 508.802419 200.872822 505.712232 197.257435 C 502.632424 193.632858 501.087031 188.677389 501.086431 182.381837 C 501.085187 170.114837 504.377467 155.690773 510.954081 139.099266 C 517.530101 122.517544 524.937826 108.41223 533.188231 96.764349 C 551.747652 70.460615 565.943029 57.307807 575.754791 57.304736 Z M 571.512561 72.977339 C 571.510914 72.034384 571.195773 71.563456 570.567137 71.564554 C 568.367505 71.558612 562.573386 77.855723 553.195753 90.436911 C 543.817526 103.027884 537.039897 113.06613 532.853081 120.551055 C 528.66567 128.045765 524.725591 137.451029 521.012678 148.775443 C 528.432707 139.96461 538.705418 126.229763 551.830811 107.570903 C 564.946418 88.911448 571.510461 77.377197 571.512561 72.977339 Z M 599.923612 98.559393 L 601.624515 98.368076 C 602.567469 98.366429 603.322903 99.188209 603.891411 100.823632 C 604.459919 102.459055 604.736423 103.566027 604.741682 104.126166 C 604.736561 104.695496 604.111629 105.767351 602.847317 107.340542 L 575.95226 148.31197 C 585.384903 138.867149 594.986505 131.976334 604.737494 127.638335 C 608.519917 126.00204 611.9289 125.177878 614.983418 125.176824 C 618.037937 125.17577 620.49185 126.169478 622.345157 128.157947 C 624.199059 130.136631 625.129212 132.609198 625.126425 135.565269 C 625.133423 138.521935 624.312422 142.174728 622.673802 146.514458 C 621.035181 150.854189 618.819183 155.482951 616.016617 160.390366 C 613.223836 165.298375 609.820206 170.238027 605.825298 175.210511 C 601.830391 180.182994 597.648144 184.682492 593.268774 188.708409 C 588.89919 192.734921 584.133255 196.010572 578.971564 198.525578 C 573.809873 201.040583 569.274028 202.307004 565.375003 202.305864 C 557.508455 202.299423 553.573761 198.681842 553.571515 191.443337 C 546.20837 202.712975 537.717541 216.055174 528.089243 231.46934 C 518.46035 246.893291 513.299944 255.045857 512.608024 255.927036 C 511.916105 256.808215 511.329811 257.244027 510.858334 257.24485 C 510.386857 257.245674 509.667227 256.966245 508.690252 256.396184 C 507.713278 255.826123 506.690394 254.880061 505.621008 253.567781 C 504.552216 252.245717 504.000946 250.326521 503.967793 247.800408 C 503.934045 245.28408 504.678091 242.73643 506.190144 240.156863 C 514.681384 225.999513 531.061384 199.357136 555.31917 160.24871 C 579.576956 121.140284 592.71858 100.920808 594.733662 99.599473 C 595.86976 98.84349 597.002842 98.460537 598.132311 98.460399 Z M 608.236568 141.983882 C 608.228748 140.657519 607.600797 140.000625 606.343525 140.00282 C 602.945333 140.00264 595.753243 145.222868 584.776446 155.673883 C 573.790458 166.114518 565.059383 175.651064 558.574031 184.273141 C 560.209685 186.287674 562.633647 187.289384 565.84473 187.29784 C 569.056408 187.296512 573.20802 185.564787 578.309352 182.103261 C 583.400899 178.64114 588.128699 174.538175 592.463988 169.782796 C 596.809063 165.028013 600.519603 160.048076 603.606583 154.824011 C 606.693562 149.599946 608.230169 145.322768 608.236568 141.983882 Z M 684.415399 95.353639 C 684.41371 98.938346 682.741389 102.539424 679.408221 106.157468 C 676.075054 109.775512 672.596249 111.587393 668.982186 111.583921 C 665.357743 111.589639 663.547418 109.701995 663.55121 105.920988 C 663.544622 102.149171 665.138661 98.543338 668.313161 95.112083 C 671.497446 91.681423 674.999662 89.969178 678.839976 89.966752 C 680.538775 89.971734 681.895318 90.437175 682.89863 91.382048 C 683.911728 92.327517 684.410596 93.654246 684.415399 95.353639 Z M 669.116717 177.758842 C 669.120011 179.64475 668.929747 180.998366 668.555712 181.820285 C 665.472438 188.115107 660.557393 193.198659 653.830743 197.062344 C 647.093713 200.935219 641.240605 202.868046 636.270822 202.870611 C 631.30104 202.873176 627.012614 201.198386 623.433711 197.867596 C 619.845023 194.536212 618.047957 191.136878 618.052298 187.670189 C 618.04626 184.21269 619.776605 179.171392 623.242146 172.565863 C 626.697902 165.95974 630.162483 159.855045 633.626104 154.251182 C 637.089131 148.657105 638.815637 145.619138 638.814814 145.147661 C 638.81399 144.676184 638.173328 143.743518 636.882446 142.358855 C 635.591564 140.974193 634.946466 139.952865 634.947152 139.294873 C 634.948431 138.627096 636.251611 136.899123 638.867069 134.101764 C 641.472743 131.30381 644.656342 128.531142 648.397703 125.792356 C 652.139064 123.05357 655.001625 121.685503 656.985386 121.688153 C 658.969148 121.690804 660.752631 122.565214 662.324863 124.330359 C 663.897095 126.095505 664.683851 127.695078 664.683944 129.148651 C 664.684631 130.592438 657.1978 144.221519 642.214855 170.015729 C 642.024728 170.397035 641.502725 171.229608 640.658036 172.523827 C 639.804156 173.807667 639.149869 174.877739 638.675603 175.732854 C 638.201932 176.578185 637.64847 177.605274 637.026191 178.795147 C 635.763525 181.311293 635.134296 183.423955 635.139098 185.123349 C 635.136722 187.264269 636.584214 188.334339 639.481573 188.333559 C 642.369148 188.332185 645.37547 187.346064 648.491945 185.35503 C 651.607826 183.373781 654.294068 181.189648 656.561052 178.79344 C 662.476161 172.444751 665.851671 169.26142 666.666822 169.261831 C 668.297124 169.262653 669.117216 172.091926 669.116717 177.758842 Z M 727.079463 77.408807 L 730.950184 78.360903 C 731.520109 78.356239 732.023274 78.642161 732.460274 79.208884 C 732.897275 79.775607 733.120188 80.309682 733.119228 80.810515 C 733.118268 81.311348 732.456528 82.665788 731.143792 84.874429 C 729.821865 87.07269 728.255856 89.570408 726.464739 92.378558 C 724.674217 95.176923 723.717409 96.700045 723.583936 96.957115 C 728.498024 96.577954 731.976602 96.386589 734.019669 96.383021 C 736.062142 96.389238 737.467657 96.533547 738.216643 96.814759 C 738.975415 97.096566 739.840864 97.885744 740.813587 99.172508 C 741.786309 100.459273 742.689392 101.437343 743.503857 102.095746 C 744.327514 102.764529 744.729168 103.751425 744.737583 105.068003 C 744.735618 106.393772 743.930985 107.513639 742.323683 108.427605 C 740.716977 109.331785 739.003866 109.885752 737.184946 110.079722 C 722.581413 111.520274 714.521127 112.277954 713.014467 112.343572 C 707.914601 120.146244 700.792111 132.304606 691.636617 148.827847 C 682.471337 165.350493 677.61071 175.681977 677.043761 179.841272 C 676.792043 181.721511 676.668768 183.265803 676.67453 184.464363 C 676.672703 186.919602 677.96331 188.147105 680.536566 188.14628 C 683.119608 188.14605 685.988936 187.151606 689.134173 185.172141 C 692.279409 183.192675 695.170548 181.030811 697.816186 178.706711 C 704.867577 172.407405 708.643095 169.268017 709.143928 169.268977 C 710.78461 169.260607 711.594322 172.099071 711.594418 177.756202 C 711.603474 180.84067 710.177979 183.612102 707.347884 186.062496 C 700.994631 191.539929 695.646792 195.664158 691.304368 198.43518 C 686.961943 201.206203 682.61586 202.582366 678.274713 202.583832 C 677.331759 202.585479 676.453461 202.49284 675.630034 202.305319 C 670.599893 201.361363 666.901281 199.516154 664.543391 196.780071 C 662.175715 194.043393 661.015333 190.348808 661.043267 185.685342 C 661.080393 181.032255 662.464778 175.380657 665.205613 168.740926 C 667.936663 162.100601 671.380621 155.041977 675.538082 147.555269 C 682.329655 135.347342 689.134764 123.886662 695.932649 113.191613 L 692.33898 113.660806 C 685.040758 114.484422 680.792663 114.894219 679.594697 114.890196 L 678.75019 114.888002 C 676.922994 114.894862 675.157527 114.532259 673.463574 113.800788 C 671.759242 113.078507 670.910116 112.182285 670.916197 111.112122 C 670.912492 110.041365 671.368102 109.008331 672.28362 108.003235 C 673.189947 106.987759 673.748119 106.20649 673.929969 105.638075 C 674.377622 104.250987 676.022967 102.710764 678.886168 101.008807 C 681.748774 99.316636 683.90524 98.416388 685.354377 98.327634 C 686.804108 98.229094 688.203724 98.147152 689.552631 98.091595 C 690.911917 98.026846 692.418576 97.961229 694.09218 97.895931 C 695.755405 97.839824 697.026623 97.769726 697.914432 97.705801 L 706.403442 97.327735 C 711.69755 89.399362 715.326562 84.306437 717.310641 82.040365 C 719.29472 79.774292 720.44097 78.527856 720.75858 78.311436 C 721.066405 78.094422 721.702174 77.975901 722.644533 77.984039 Z M 768.610911 128.390483 C 768.613887 132.545115 766.928809 136.194525 763.565462 139.339308 C 760.202115 142.484092 756.374332 144.058703 752.091897 144.063736 C 750.707416 144.058204 749.794458 143.727746 749.353022 143.072361 C 748.921966 142.407785 748.699693 141.539821 748.695988 140.469063 C 748.702069 139.398901 748.82379 138.365227 749.07153 137.358851 C 746.805963 138.114972 744.289773 139.278188 741.522962 140.8485 C 738.75615 142.418813 735.353479 144.755853 731.326516 147.830859 C 727.298958 150.915651 725.283145 153.219082 725.290051 154.722175 C 725.288497 155.232793 726.029481 155.484055 727.502624 155.485151 C 728.985552 155.486842 731.266209 154.967351 734.344596 153.926679 C 737.432767 152.886601 739.585621 152.369168 740.813538 152.365189 C 742.040859 152.370995 742.842659 152.429523 743.21834 152.550559 C 744.036098 152.993091 744.920204 153.960187 745.862062 155.431683 C 746.813111 156.913559 747.282348 158.081346 747.280154 158.925853 C 747.277365 159.780145 746.463541 160.889632 744.827113 162.283077 C 743.19128 163.666736 741.33043 164.71262 739.253161 165.440894 C 737.175891 166.169168 735.797264 166.71399 735.106304 167.094336 C 721.82859 174.518087 715.184202 179.614443 715.182924 182.383999 C 715.189055 187.29507 719.371215 189.749116 727.73919 189.746732 C 733.091787 189.747779 738.468938 188.051216 743.881022 184.647853 C 748.476401 181.754697 752.613059 178.814032 756.300784 175.826453 C 759.978723 172.83828 762.310272 170.995992 763.285645 170.298995 C 764.260424 169.611784 764.998527 169.263765 765.49936 169.264725 C 767.139447 169.266141 767.951673 171.093154 767.956203 174.737168 C 767.950353 178.390372 767.735627 180.793391 767.291266 181.964608 C 766.857285 183.126634 765.592104 184.552452 763.514698 186.253036 C 750.051752 197.211059 737.305095 202.683147 725.283916 202.679682 C 718.870347 202.682933 713.738192 201.80153 709.897237 200.036066 C 702.853703 196.828738 699.321576 191.919545 699.330213 185.31027 C 699.32728 176.627977 705.334937 170.049196 717.352592 165.583712 C 714.962146 164.515289 713.424849 163.145121 712.730915 161.472615 C 712.036387 159.809894 711.688047 157.136957 711.695681 153.454397 C 711.693529 149.771242 713.403847 145.868009 716.836422 141.745291 C 720.268997 137.622573 724.471546 134.243948 729.434879 131.599036 C 740.513053 125.622915 750.398477 122.628793 759.080175 122.635645 C 761.162383 122.634454 763.263202 123.135285 765.402203 124.139327 C 767.541203 125.143369 768.613836 126.563881 768.610911 128.390483 Z M 768.610911 128.390483 " stroke="#101010" stroke-width="9.66665" stroke-opacity="1" stroke-miterlimit="4"/><g fill="#e8d5b9" fill-opacity="1"><g transform="translate(71.79771, 352.219429)"><g><path d="M 46.0625 -59.265625 C 46.53125 -59.296875 46.910156 -59.171875 47.203125 -58.890625 C 47.503906 -58.609375 47.660156 -58.3125 47.671875 -58 C 47.691406 -57.6875 47.484375 -57.097656 47.046875 -56.234375 C 46.617188 -55.367188 45.613281 -53.472656 44.03125 -50.546875 C 42.457031 -47.628906 41.226562 -45.34375 40.34375 -43.6875 C 35.21875 -34.09375 31.234375 -26.007812 28.390625 -19.4375 C 25.554688 -12.863281 24.175781 -8.910156 24.25 -7.578125 L 24.28125 -7.28125 C 24.34375 -6.25 24.75 -5.753906 25.5 -5.796875 C 26.257812 -5.847656 27.144531 -6.253906 28.15625 -7.015625 C 29.164062 -7.785156 30.046875 -8.59375 30.796875 -9.4375 C 31.554688 -10.289062 32.316406 -11.175781 33.078125 -12.09375 C 33.847656 -13.007812 34.3125 -13.546875 34.46875 -13.703125 C 34.632812 -13.867188 34.859375 -13.957031 35.140625 -13.96875 C 35.566406 -14 35.859375 -13.742188 36.015625 -13.203125 C 36.171875 -12.671875 36.28125 -11.921875 36.34375 -10.953125 C 36.40625 -9.992188 36.363281 -9.359375 36.21875 -9.046875 C 35.59375 -7.597656 34.101562 -5.789062 31.75 -3.625 C 29.40625 -1.46875 27.132812 -0.328125 24.9375 -0.203125 C 21.1875 0.0234375 19.21875 -1.445312 19.03125 -4.625 C 18.90625 -6.601562 19.488281 -9.238281 20.78125 -12.53125 C 18.925781 -9.78125 17 -7.410156 15 -5.421875 C 11.300781 -1.785156 8.007812 0.117188 5.125 0.296875 C 3.53125 0.398438 2.316406 -0.0859375 1.484375 -1.171875 C 0.648438 -2.265625 0.171875 -3.867188 0.046875 -5.984375 C -0.078125 -8.097656 0.59375 -10.679688 2.0625 -13.734375 C 3.53125 -16.785156 5.425781 -19.566406 7.75 -22.078125 C 10.070312 -24.597656 12.6875 -26.742188 15.59375 -28.515625 C 18.5 -30.285156 21.21875 -31.242188 23.75 -31.390625 C 24.550781 -31.441406 25.523438 -31.015625 26.671875 -30.109375 C 27.328125 -31.304688 28.519531 -33.691406 30.25 -37.265625 C 35.757812 -47.972656 39.429688 -54.523438 41.265625 -56.921875 C 42.234375 -58.347656 43.832031 -59.128906 46.0625 -59.265625 Z M 24.578125 -26.4375 C 21.023438 -25.414062 17.773438 -23.53125 14.828125 -20.78125 C 11.878906 -18.039062 9.710938 -15.226562 8.328125 -12.34375 C 6.941406 -9.46875 6.273438 -7.613281 6.328125 -6.78125 C 6.378906 -5.957031 6.582031 -5.554688 6.9375 -5.578125 C 8.4375 -5.671875 11.953125 -9.253906 17.484375 -16.328125 C 20.234375 -19.816406 22.597656 -23.1875 24.578125 -26.4375 Z M 24.578125 -26.4375 "/></g></g></g><g fill="#e8d5b9" fill-opacity="1"><g transform="translate(103.448131, 350.296765)"><g><path d="M 26.453125 -29.796875 C 26.546875 -28.140625 25.960938 -26.644531 24.703125 -25.3125 C 23.441406 -23.976562 21.957031 -23.257812 20.25 -23.15625 C 19.707031 -23.125 19.335938 -23.234375 19.140625 -23.484375 C 18.953125 -23.742188 18.84375 -24.082031 18.8125 -24.5 C 18.789062 -24.925781 18.820312 -25.34375 18.90625 -25.75 C 18.007812 -25.394531 17.03125 -24.867188 15.96875 -24.171875 C 14.914062 -23.484375 13.625 -22.476562 12.09375 -21.15625 C 10.570312 -19.832031 9.832031 -18.867188 9.875 -18.265625 C 9.882812 -18.066406 10.179688 -17.984375 10.765625 -18.015625 C 11.347656 -18.054688 12.238281 -18.320312 13.4375 -18.8125 C 14.644531 -19.300781 15.488281 -19.554688 15.96875 -19.578125 C 16.457031 -19.609375 16.78125 -19.601562 16.9375 -19.5625 C 17.269531 -19.414062 17.640625 -19.054688 18.046875 -18.484375 C 18.460938 -17.910156 18.679688 -17.453125 18.703125 -17.109375 C 18.722656 -16.773438 18.421875 -16.3125 17.796875 -15.71875 C 17.179688 -15.132812 16.46875 -14.671875 15.65625 -14.328125 C 14.851562 -13.992188 14.320312 -13.75 14.0625 -13.59375 C 8.957031 -10.320312 6.4375 -8.132812 6.5 -7.03125 C 6.625 -5.082031 8.351562 -4.207031 11.6875 -4.40625 C 13.8125 -4.539062 15.910156 -5.34375 17.984375 -6.8125 C 19.734375 -8.082031 21.300781 -9.351562 22.6875 -10.625 C 24.082031 -11.90625 24.96875 -12.691406 25.34375 -12.984375 C 25.71875 -13.285156 26.003906 -13.445312 26.203125 -13.46875 C 26.859375 -13.5 27.226562 -12.785156 27.3125 -11.328125 C 27.40625 -9.878906 27.375 -8.914062 27.21875 -8.4375 C 27.070312 -7.96875 26.601562 -7.375 25.8125 -6.65625 C 20.726562 -1.96875 15.800781 0.519531 11.03125 0.8125 C 8.46875 0.957031 6.398438 0.722656 4.828125 0.109375 C 1.953125 -0.984375 0.4375 -2.84375 0.28125 -5.46875 C 0.0703125 -8.925781 2.296875 -11.6875 6.953125 -13.75 C 5.984375 -14.125 5.335938 -14.632812 5.015625 -15.28125 C 4.703125 -15.925781 4.5 -16.976562 4.40625 -18.4375 C 4.320312 -19.90625 4.910156 -21.5 6.171875 -23.21875 C 7.441406 -24.945312 9.035156 -26.398438 10.953125 -27.578125 C 15.210938 -30.210938 19.066406 -31.632812 22.515625 -31.84375 C 23.347656 -31.894531 24.203125 -31.742188 25.078125 -31.390625 C 25.953125 -31.046875 26.410156 -30.515625 26.453125 -29.796875 Z M 26.453125 -29.796875 "/></g></g></g><g fill="#e8d5b9" fill-opacity="1"><g transform="translate(127.852367, 348.814284)"><g/></g></g><g fill="#e8d5b9" fill-opacity="1"><g transform="translate(143.808987, 347.84497)"><g><path d="M 20.703125 -41.6875 C 19.921875 -41.03125 19.550781 -40.332031 19.59375 -39.59375 C 19.644531 -38.863281 20.222656 -38.535156 21.328125 -38.609375 C 21.796875 -38.628906 22.398438 -38.804688 23.140625 -39.140625 L 23.171875 -39.140625 C 23.296875 -39.148438 23.375 -38.894531 23.40625 -38.375 C 23.4375 -37.863281 23.410156 -37.550781 23.328125 -37.4375 C 20.847656 -35.457031 18.71875 -34.410156 16.9375 -34.296875 C 15.164062 -34.191406 13.847656 -34.613281 12.984375 -35.5625 C 12.117188 -36.519531 11.640625 -37.804688 11.546875 -39.421875 C 11.453125 -41.035156 12.238281 -42.804688 13.90625 -44.734375 C 15.570312 -46.660156 17.859375 -48.484375 20.765625 -50.203125 C 23.679688 -51.921875 27.328125 -53.414062 31.703125 -54.6875 C 36.085938 -55.957031 41.050781 -56.757812 46.59375 -57.09375 C 52.132812 -57.425781 56.835938 -56.625 60.703125 -54.6875 C 64.566406 -52.75 66.582031 -50.394531 66.75 -47.625 C 66.914062 -44.863281 66.113281 -41.992188 64.34375 -39.015625 C 62.570312 -36.046875 60.296875 -33.414062 57.515625 -31.125 C 54.734375 -28.832031 51.601562 -26.90625 48.125 -25.34375 C 44.65625 -23.78125 41.519531 -22.910156 38.71875 -22.734375 C 35.914062 -22.566406 33.664062 -23.5625 31.96875 -25.71875 C 28.539062 -19.507812 26.210938 -15.265625 24.984375 -12.984375 C 23.765625 -10.710938 22.734375 -8.804688 21.890625 -7.265625 C 21.046875 -5.722656 20.390625 -4.507812 19.921875 -3.625 C 19.460938 -2.738281 19.222656 -2.285156 19.203125 -2.265625 C 18.703125 -1.648438 18.15625 -1.320312 17.5625 -1.28125 L 15.734375 -0.84375 L 14.828125 -0.875 L 14.1875 -0.828125 C 12.71875 -0.742188 11.957031 -1.164062 11.90625 -2.09375 C 11.832031 -3.269531 14.023438 -7.847656 18.484375 -15.828125 C 22.941406 -23.804688 27.160156 -31.054688 31.140625 -37.578125 C 35.128906 -44.097656 37.460938 -47.765625 38.140625 -48.578125 C 38.828125 -49.398438 39.445312 -49.894531 40 -50.0625 C 40.5625 -50.238281 41.472656 -50.363281 42.734375 -50.4375 L 44.59375 -50.5625 C 44.914062 -50.570312 45.09375 -50.320312 45.125 -49.8125 C 45.15625 -49.300781 45.113281 -48.945312 45 -48.75 C 43 -45.53125 39.394531 -39.203125 34.1875 -29.765625 C 34.40625 -29.390625 34.75 -29.164062 35.21875 -29.09375 C 35.6875 -29.019531 36.179688 -29 36.703125 -29.03125 L 37.796875 -29.09375 C 40.097656 -29.238281 42.550781 -29.945312 45.15625 -31.21875 C 47.769531 -32.488281 50.039062 -33.960938 51.96875 -35.640625 C 53.90625 -37.316406 55.503906 -39.035156 56.765625 -40.796875 C 58.035156 -42.566406 58.632812 -44.050781 58.5625 -45.25 C 58.488281 -46.457031 58.046875 -47.515625 57.234375 -48.421875 C 56.421875 -49.335938 55.347656 -50.023438 54.015625 -50.484375 C 51.398438 -51.410156 48.269531 -51.765625 44.625 -51.546875 C 40.988281 -51.328125 36.65625 -50.113281 31.625 -47.90625 C 26.601562 -45.707031 22.960938 -43.632812 20.703125 -41.6875 Z M 20.703125 -41.6875 "/></g></g></g><g fill="#e8d5b9" fill-opacity="1"><g transform="translate(199.300473, 344.474036)"><g><path d="M 29.234375 -30.40625 C 31.140625 -30.519531 32.132812 -29.925781 32.21875 -28.625 C 32.257812 -27.925781 32.125 -27.40625 31.8125 -27.0625 C 31.507812 -26.71875 30.878906 -25.59375 29.921875 -23.6875 C 28.972656 -21.78125 27.941406 -19.351562 26.828125 -16.40625 C 25.710938 -13.46875 25.03125 -10.972656 24.78125 -8.921875 C 24.71875 -8.671875 24.695312 -8.320312 24.71875 -7.875 C 24.800781 -6.488281 25.21875 -5.816406 25.96875 -5.859375 C 26.726562 -5.898438 27.597656 -6.3125 28.578125 -7.09375 C 29.554688 -7.875 30.421875 -8.695312 31.171875 -9.5625 C 31.929688 -10.425781 32.664062 -11.304688 33.375 -12.203125 C 34.09375 -13.109375 34.519531 -13.625 34.65625 -13.75 C 34.800781 -13.882812 35.023438 -13.960938 35.328125 -13.984375 C 35.804688 -14.015625 36.117188 -13.664062 36.265625 -12.9375 C 36.410156 -12.21875 36.503906 -11.46875 36.546875 -10.6875 C 36.597656 -9.914062 36.550781 -9.375 36.40625 -9.0625 C 35.78125 -7.59375 34.289062 -5.78125 31.9375 -3.625 C 29.59375 -1.476562 27.410156 -0.34375 25.390625 -0.21875 C 23.378906 -0.101562 21.863281 -0.628906 20.84375 -1.796875 C 19.820312 -2.972656 19.265625 -4.300781 19.171875 -5.78125 C 19.078125 -7.269531 19.25 -8.59375 19.6875 -9.75 C 17.769531 -6.90625 15.523438 -4.460938 12.953125 -2.421875 C 10.378906 -0.390625 8.238281 0.675781 6.53125 0.78125 C 4.832031 0.882812 3.414062 0.453125 2.28125 -0.515625 C 0.8125 -1.710938 0.0078125 -3.441406 -0.125 -5.703125 C -0.257812 -7.972656 0.109375 -10.28125 0.984375 -12.625 C 1.859375 -14.976562 3.0625 -17.148438 4.59375 -19.140625 C 6.132812 -21.128906 7.847656 -22.957031 9.734375 -24.625 C 13.691406 -28.144531 17.421875 -30.007812 20.921875 -30.21875 C 22.273438 -30.300781 23.390625 -30.140625 24.265625 -29.734375 C 25.148438 -29.335938 25.722656 -28.804688 25.984375 -28.140625 C 26.535156 -29.085938 27.007812 -29.691406 27.40625 -29.953125 C 27.800781 -30.210938 28.410156 -30.363281 29.234375 -30.40625 Z M 24.5 -25.9375 C 20.21875 -25.675781 15.929688 -23.03125 11.640625 -18 C 10.117188 -16.195312 8.75 -14.066406 7.53125 -11.609375 C 6.3125 -9.148438 5.726562 -7.476562 5.78125 -6.59375 C 5.832031 -5.71875 6.109375 -5.296875 6.609375 -5.328125 C 7.304688 -5.367188 9.175781 -6.867188 12.21875 -9.828125 C 15.257812 -12.785156 17.265625 -14.953125 18.234375 -16.328125 C 19.296875 -17.847656 21.382812 -21.050781 24.5 -25.9375 Z M 24.5 -25.9375 "/></g></g></g><g fill="#e8d5b9" fill-opacity="1"><g transform="translate(230.61298, 342.571899)"><g><path d="M 30.03125 -58.375 C 31.226562 -58.445312 32.304688 -58.15625 33.265625 -57.5 C 34.222656 -56.851562 34.742188 -55.828125 34.828125 -54.421875 C 34.921875 -53.015625 34.28125 -50.769531 32.90625 -47.6875 C 31.539062 -44.601562 29.863281 -41.4375 27.875 -38.1875 C 25.882812 -34.9375 23.613281 -31.476562 21.0625 -27.8125 C 17.050781 -21.988281 13.179688 -16.738281 9.453125 -12.0625 C 9.441406 -11.757812 9.363281 -11.195312 9.21875 -10.375 C 9.082031 -9.550781 9.035156 -8.722656 9.078125 -7.890625 C 9.128906 -7.066406 9.554688 -6.347656 10.359375 -5.734375 C 11.171875 -5.117188 12.140625 -4.84375 13.265625 -4.90625 C 14.390625 -4.976562 15.570312 -5.453125 16.8125 -6.328125 C 18.0625 -7.203125 19.128906 -8.160156 20.015625 -9.203125 C 22.359375 -11.929688 23.832031 -13.3125 24.4375 -13.34375 C 25.039062 -13.382812 25.398438 -12.492188 25.515625 -10.671875 L 25.5625 -9.90625 C 25.613281 -8.9375 25.476562 -8.210938 25.15625 -7.734375 C 23.207031 -5.035156 20.957031 -2.972656 18.40625 -1.546875 C 15.851562 -0.117188 13.398438 0.660156 11.046875 0.796875 C 8.703125 0.941406 6.875 0.332031 5.5625 -1.03125 C 4.25 -2.40625 3.515625 -4.34375 3.359375 -6.84375 C 3.066406 -11.71875 4.023438 -17.53125 6.234375 -24.28125 C 8.453125 -31.039062 11.054688 -36.832031 14.046875 -41.65625 C 20.796875 -52.5625 26.125 -58.132812 30.03125 -58.375 Z M 28.71875 -52.046875 C 28.695312 -52.421875 28.554688 -52.601562 28.296875 -52.59375 C 27.421875 -52.539062 25.269531 -49.894531 21.84375 -44.65625 C 18.425781 -39.425781 15.972656 -35.269531 14.484375 -32.1875 C 13.003906 -29.113281 11.664062 -25.28125 10.46875 -20.6875 C 13.207031 -24.375 16.957031 -30.082031 21.71875 -37.8125 C 26.488281 -45.539062 28.820312 -50.285156 28.71875 -52.046875 Z M 28.71875 -52.046875 "/></g></g></g><g fill="#e8d5b9" fill-opacity="1"><g transform="translate(250.436729, 341.367668)"><g><path d="M 20.8125 -41.34375 L 21.46875 -41.46875 C 21.84375 -41.488281 22.160156 -41.179688 22.421875 -40.546875 C 22.691406 -39.910156 22.832031 -39.484375 22.84375 -39.265625 C 22.863281 -39.046875 22.640625 -38.601562 22.171875 -37.9375 L 12.46875 -21 C 16 -24.976562 19.648438 -27.953125 23.421875 -29.921875 C 24.890625 -30.660156 26.226562 -31.066406 27.4375 -31.140625 C 28.644531 -31.210938 29.640625 -30.875 30.421875 -30.125 C 31.210938 -29.382812 31.644531 -28.425781 31.71875 -27.25 C 31.789062 -26.070312 31.550781 -24.597656 31 -22.828125 C 30.457031 -21.066406 29.691406 -19.175781 28.703125 -17.15625 C 27.710938 -15.144531 26.476562 -13.097656 25 -11.015625 C 23.53125 -8.929688 21.972656 -7.035156 20.328125 -5.328125 C 18.691406 -3.628906 16.878906 -2.21875 14.890625 -1.09375 C 12.898438 0.03125 11.128906 0.640625 9.578125 0.734375 C 6.441406 0.921875 4.785156 -0.425781 4.609375 -3.3125 C 1.953125 1.351562 -1.101562 6.867188 -4.5625 13.234375 C -8.019531 19.597656 -9.875 22.960938 -10.125 23.328125 C -10.375 23.691406 -10.59375 23.878906 -10.78125 23.890625 C -10.976562 23.898438 -11.273438 23.804688 -11.671875 23.609375 C -12.066406 23.410156 -12.492188 23.0625 -12.953125 22.5625 C -13.410156 22.070312 -13.671875 21.320312 -13.734375 20.3125 C -13.804688 19.3125 -13.578125 18.285156 -13.046875 17.234375 C -10.015625 11.390625 -4.148438 0.398438 4.546875 -15.734375 C 13.253906 -31.878906 17.988281 -40.238281 18.75 -40.8125 C 19.195312 -41.144531 19.644531 -41.328125 20.09375 -41.359375 Z M 25.171875 -24.28125 C 25.140625 -24.8125 24.867188 -25.0625 24.359375 -25.03125 C 23.003906 -24.945312 20.269531 -22.691406 16.15625 -18.265625 C 12.039062 -13.847656 8.796875 -9.847656 6.421875 -6.265625 C 7.128906 -5.492188 8.117188 -5.144531 9.390625 -5.21875 C 10.671875 -5.300781 12.28125 -6.09375 14.21875 -7.59375 C 16.164062 -9.101562 17.945312 -10.851562 19.5625 -12.84375 C 21.175781 -14.84375 22.535156 -16.914062 23.640625 -19.0625 C 24.742188 -21.21875 25.253906 -22.957031 25.171875 -24.28125 Z M 25.171875 -24.28125 "/></g></g></g><g fill="#e8d5b9" fill-opacity="1"><g transform="translate(280.510267, 339.540795)"><g><path d="M 24.265625 -42.84375 C 24.347656 -41.414062 23.769531 -39.941406 22.53125 -38.421875 C 21.289062 -36.910156 19.953125 -36.109375 18.515625 -36.015625 C 17.078125 -35.929688 16.3125 -36.640625 16.21875 -38.140625 C 16.125 -39.640625 16.664062 -41.109375 17.84375 -42.546875 C 19.019531 -43.992188 20.375 -44.757812 21.90625 -44.84375 C 22.582031 -44.882812 23.132812 -44.726562 23.5625 -44.375 C 23.988281 -44.03125 24.222656 -43.519531 24.265625 -42.84375 Z M 20.171875 -9.703125 C 20.222656 -8.941406 20.179688 -8.398438 20.046875 -8.078125 C 18.972656 -5.492188 17.144531 -3.347656 14.5625 -1.640625 C 11.976562 0.0546875 9.691406 0.960938 7.703125 1.078125 C 5.722656 1.203125 3.984375 0.644531 2.484375 -0.59375 C 0.984375 -1.832031 0.1875 -3.140625 0.09375 -4.515625 C 0.0078125 -5.890625 0.578125 -7.9375 1.796875 -10.65625 C 3.015625 -13.375 4.242188 -15.882812 5.484375 -18.1875 C 6.734375 -20.5 7.351562 -21.75 7.34375 -21.9375 C 7.332031 -22.125 7.050781 -22.476562 6.5 -23 C 5.945312 -23.519531 5.660156 -23.910156 5.640625 -24.171875 C 5.628906 -24.441406 6.109375 -25.164062 7.078125 -26.34375 C 8.054688 -27.519531 9.253906 -28.695312 10.671875 -29.875 C 12.085938 -31.050781 13.191406 -31.660156 13.984375 -31.703125 C 14.773438 -31.753906 15.503906 -31.453125 16.171875 -30.796875 C 16.847656 -30.140625 17.203125 -29.519531 17.234375 -28.9375 C 17.265625 -28.363281 14.613281 -22.765625 9.28125 -12.140625 C 9.21875 -11.984375 9.03125 -11.632812 8.71875 -11.09375 C 8.414062 -10.5625 8.179688 -10.117188 8.015625 -9.765625 C 7.847656 -9.421875 7.65625 -9.003906 7.4375 -8.515625 C 7 -7.484375 6.800781 -6.628906 6.84375 -5.953125 C 6.894531 -5.097656 7.492188 -4.703125 8.640625 -4.765625 C 9.796875 -4.835938 10.96875 -5.304688 12.15625 -6.171875 C 13.34375 -7.046875 14.359375 -7.984375 15.203125 -8.984375 C 17.410156 -11.660156 18.675781 -13.007812 19 -13.03125 C 19.644531 -13.0625 20.035156 -11.953125 20.171875 -9.703125 Z M 20.171875 -9.703125 "/></g></g></g><g fill="#e8d5b9" fill-opacity="1"><g transform="translate(296.091425, 338.594288)"><g><path d="M 25.21875 -50.0625 L 26.78125 -49.765625 C 27.007812 -49.785156 27.210938 -49.6875 27.390625 -49.46875 C 27.578125 -49.257812 27.675781 -49.054688 27.6875 -48.859375 C 27.695312 -48.660156 27.46875 -48.109375 27 -47.203125 C 26.539062 -46.296875 25.988281 -45.257812 25.34375 -44.09375 C 24.695312 -42.9375 24.347656 -42.304688 24.296875 -42.203125 C 26.234375 -42.472656 27.609375 -42.632812 28.421875 -42.6875 C 29.242188 -42.738281 29.804688 -42.710938 30.109375 -42.609375 C 30.421875 -42.515625 30.785156 -42.222656 31.203125 -41.734375 C 31.628906 -41.242188 32.015625 -40.878906 32.359375 -40.640625 C 32.703125 -40.398438 32.890625 -40.019531 32.921875 -39.5 C 32.953125 -38.976562 32.65625 -38.515625 32.03125 -38.109375 C 31.414062 -37.703125 30.75 -37.441406 30.03125 -37.328125 C 24.257812 -36.390625 21.070312 -35.894531 20.46875 -35.84375 C 18.632812 -32.601562 16.09375 -27.585938 12.84375 -20.796875 C 9.601562 -14.015625 7.921875 -9.789062 7.796875 -8.125 C 7.742188 -7.363281 7.734375 -6.75 7.765625 -6.28125 C 7.816406 -5.300781 8.351562 -4.835938 9.375 -4.890625 C 10.40625 -4.953125 11.519531 -5.414062 12.71875 -6.28125 C 13.925781 -7.144531 15.03125 -8.078125 16.03125 -9.078125 C 18.6875 -11.753906 20.113281 -13.097656 20.3125 -13.109375 C 20.957031 -13.148438 21.347656 -12.046875 21.484375 -9.796875 C 21.554688 -8.566406 21.0625 -7.425781 20 -6.375 C 17.601562 -4.039062 15.578125 -2.269531 13.921875 -1.0625 C 12.265625 0.132812 10.570312 0.785156 8.84375 0.890625 C 8.46875 0.910156 8.109375 0.894531 7.765625 0.84375 C 5.742188 0.59375 4.226562 -0.046875 3.21875 -1.078125 C 2.21875 -2.109375 1.671875 -3.550781 1.578125 -5.40625 C 1.484375 -7.257812 1.894531 -9.535156 2.8125 -12.234375 C 3.738281 -14.941406 4.9375 -17.84375 6.40625 -20.9375 C 8.820312 -25.957031 11.25 -30.671875 13.6875 -35.078125 L 12.28125 -34.8125 C 9.394531 -34.3125 7.71875 -34.046875 7.25 -34.015625 L 6.90625 -34 C 6.175781 -33.945312 5.460938 -34.046875 4.765625 -34.296875 C 4.078125 -34.546875 3.71875 -34.882812 3.6875 -35.3125 C 3.664062 -35.738281 3.820312 -36.160156 4.15625 -36.578125 C 4.5 -37.003906 4.703125 -37.332031 4.765625 -37.5625 C 4.898438 -38.125 5.519531 -38.773438 6.625 -39.515625 C 7.726562 -40.265625 8.566406 -40.671875 9.140625 -40.734375 C 9.710938 -40.804688 10.265625 -40.875 10.796875 -40.9375 C 11.328125 -41 11.925781 -41.0625 12.59375 -41.125 C 13.257812 -41.1875 13.765625 -41.238281 14.109375 -41.28125 L 17.484375 -41.640625 C 19.378906 -44.929688 20.695312 -47.046875 21.4375 -47.984375 C 22.175781 -48.929688 22.601562 -49.453125 22.71875 -49.546875 C 22.84375 -49.640625 23.09375 -49.703125 23.46875 -49.734375 Z M 25.21875 -50.0625 "/></g></g></g><g fill="#e8d5b9" fill-opacity="1"><g transform="translate(312.611216, 337.590763)"><g><path d="M 26.453125 -29.796875 C 26.546875 -28.140625 25.960938 -26.644531 24.703125 -25.3125 C 23.441406 -23.976562 21.957031 -23.257812 20.25 -23.15625 C 19.707031 -23.125 19.335938 -23.234375 19.140625 -23.484375 C 18.953125 -23.742188 18.84375 -24.082031 18.8125 -24.5 C 18.789062 -24.925781 18.820312 -25.34375 18.90625 -25.75 C 18.007812 -25.394531 17.03125 -24.867188 15.96875 -24.171875 C 14.914062 -23.484375 13.625 -22.476562 12.09375 -21.15625 C 10.570312 -19.832031 9.832031 -18.867188 9.875 -18.265625 C 9.882812 -18.066406 10.179688 -17.984375 10.765625 -18.015625 C 11.347656 -18.054688 12.238281 -18.320312 13.4375 -18.8125 C 14.644531 -19.300781 15.488281 -19.554688 15.96875 -19.578125 C 16.457031 -19.609375 16.78125 -19.601562 16.9375 -19.5625 C 17.269531 -19.414062 17.640625 -19.054688 18.046875 -18.484375 C 18.460938 -17.910156 18.679688 -17.453125 18.703125 -17.109375 C 18.722656 -16.773438 18.421875 -16.3125 17.796875 -15.71875 C 17.179688 -15.132812 16.46875 -14.671875 15.65625 -14.328125 C 14.851562 -13.992188 14.320312 -13.75 14.0625 -13.59375 C 8.957031 -10.320312 6.4375 -8.132812 6.5 -7.03125 C 6.625 -5.082031 8.351562 -4.207031 11.6875 -4.40625 C 13.8125 -4.539062 15.910156 -5.34375 17.984375 -6.8125 C 19.734375 -8.082031 21.300781 -9.351562 22.6875 -10.625 C 24.082031 -11.90625 24.96875 -12.691406 25.34375 -12.984375 C 25.71875 -13.285156 26.003906 -13.445312 26.203125 -13.46875 C 26.859375 -13.5 27.226562 -12.785156 27.3125 -11.328125 C 27.40625 -9.878906 27.375 -8.914062 27.21875 -8.4375 C 27.070312 -7.96875 26.601562 -7.375 25.8125 -6.65625 C 20.726562 -1.96875 15.800781 0.519531 11.03125 0.8125 C 8.46875 0.957031 6.398438 0.722656 4.828125 0.109375 C 1.953125 -0.984375 0.4375 -2.84375 0.28125 -5.46875 C 0.0703125 -8.925781 2.296875 -11.6875 6.953125 -13.75 C 5.984375 -14.125 5.335938 -14.632812 5.015625 -15.28125 C 4.703125 -15.925781 4.5 -16.976562 4.40625 -18.4375 C 4.320312 -19.90625 4.910156 -21.5 6.171875 -23.21875 C 7.441406 -24.945312 9.035156 -26.398438 10.953125 -27.578125 C 15.210938 -30.210938 19.066406 -31.632812 22.515625 -31.84375 C 23.347656 -31.894531 24.203125 -31.742188 25.078125 -31.390625 C 25.953125 -31.046875 26.410156 -30.515625 26.453125 -29.796875 Z M 26.453125 -29.796875 "/></g></g></g></svg>